<?xml version="1.0" encoding="utf-8"?>
<!-- Designed by Vexels.com - 2020 All Rights Reserved - https://vexels.com/terms-and-conditions/  -->
<svg version="1.1" id="Capa_1" xmlns="http://www.w3.org/2000/svg" xmlns:xlink="http://www.w3.org/1999/xlink" x="0px" y="0px"
	 viewBox="0 0 1200 1200" enable-background="new 0 0 1200 1200" xml:space="preserve">
<g>
	<g>
		<path d="M333.862,1045.554c26.326,14.248,54.596,23.457,83.418,31.17c32.737,8.76,66.28,13.624,99.102,22.715
			c28.236,7.821,56.87,17.163,87.67,16.567c17.973-0.348,35.381-6.793,57.493-2.344c22.089-1.272,47.642-5.796,73.031-11.846
			c36.593-8.721,71.686-22.04,105.084-38.728c30.276-15.128,58.204-34.876,87.88-51.303c34.348-19.013,65.732-42.638,90.065-72.489
			c22.683-27.824,45.845-56.472,59.2-91.021c13.265-34.316,38.428-63.408,44.596-100.892c1.233-7.496,1.153-15.47,3.776-22.433
			c15.368-40.788,19.476-83.488,22.341-126.406c1.196-17.911,3.645-36.093,1.832-53.774c-3.682-35.906-7.638-72.085-15.914-107.104
			c-4.648-19.668-6.469-40.684-21.773-58.631c-11.36-13.323-23.309-30.056-21.434-52.02c0.877-10.274-9.315-23.846-18.721-25.772
			c-24.356-4.986-28.241-26.493-34.219-42.247c-5.922-15.605-14.501-24.402-27.72-30.216c-7.339-3.228-16.248-6.715-18.367-12.906
			c-9.045-26.416-40.432-21.63-54.117-40.724c-26.089-2.868-43.3-23.598-66.268-33.299c-17.177-7.255-33.562-17.334-52.022-19.966
			c-24.566-3.503-49.387-7.651-70.96-18.805c-22.735-11.756-49.207,0.885-70.146-14.77c-0.398-0.298-1.55,0.457-2.364,0.667
			c-26.918,6.923-53.711,4.556-80.108-2.29c-11.171-2.897-21.79-4.23-32.647-0.157c-12.098,4.537-25.018,3.017-37.364,5.397
			c-23.204,4.472-46.325,9.383-69.429,14.351c-2.338,0.502-4.156,3.12-6.5,3.952c-19.802,7.03-40.499,11.391-61.219,11.622
			c-11.478,0.128-20.506,1.524-30.85,6.866c-9.326,4.817-20.376,17.158-32.915,3.398c-2.515-2.759-8.247-0.66-7.061,2.626
			c5.447,15.089-6.641,14.994-14.546,16.707c-8.145,1.764-14.717,4.57-18.566,11.971c-2.657,5.108-7.512,7.242-12.119,8.929
			c-40.983,14.999-42.058,15.569-67.077,44.64c-2.384,2.771-5.42,3.837-8.891,4.494c-11.078,2.094-19.711,10.712-23.333,18.778
			c-8.914,19.848-32.235,28.378-37.13,50.498c-23.742,16.427-22.394,49.67-44.885,66.935c-0.678,22.658-16.049,40.437-19.966,62.588
			c-4.717,26.674-11.459,53.304-13.41,80.161c-1.422,19.566-11.279,39.39-5.524,58.068c8.587,27.875,3.435,56.403,9.523,84.756
			c8.514,39.65,15.684,79.918,26.328,118.953c16.717,61.307,46.828,116.882,88.766,164.866
			c29.677,33.956,62.802,64.377,101.537,88.743C296.03,1027.209,315.311,1035.514,333.862,1045.554z M683.392,1095.764
			c-1.132-0.238-2.962-2.453-2.822-2.661c2.05-3.06,5.298-3.379,8.515-2.722c1.158,0.237,2.044,1.803,3.044,2.754
			C689.729,1096.03,686.583,1096.433,683.392,1095.764z M1095.899,732.134c-7.982-4.582-4.446-10.43-1.183-18.216
			C1099.93,721.019,1098.681,726.528,1095.899,732.134z M1098.875,690.126c-0.908,0.141-3.275-2.368-3.094-3.286
			c0.449-2.284,1.982-4.354,3.176-6.7c1.434,1.002,3.194,1.564,3.497,2.566C1103.473,686.081,1103.195,689.457,1098.875,690.126z
			 M323.109,139.366c0.55,0.609,1.032,1.141,1.513,1.674c-1.017,0.516-1.996,1.208-3.075,1.455
			c-0.384,0.088-1.015-0.905-1.533-1.405C321.012,140.535,322.01,139.979,323.109,139.366z M82.329,587.795
			c0.895-62.307,2.765-124.732,32.99-183.016c11.493-22.161,23.691-45.076,31.206-69.643c2.702-8.83,8.557-18.013,16.722-22.266
			c12.181-6.346,18.533-14.229,17.199-28.153c-0.572-5.963,4.139-9.917,8.699-11.63c13.218-4.968,21.438-15.348,30.922-24.879
			c19.799-19.898,41.461-37.913,69.924-43.666c10.162-2.053,15.001-10.78,21.703-15.691c18.072-13.242,39.72-9.527,58.821-17.756
			c17.602-7.582,38.31-12.268,58.032-16.762c24.061-5.482,47.308-9.884,71.783-9.011c2.334,0.084,6.045,0.044,6.853-1.299
			c10.665-17.729,27.972-14.248,43.595-12.8c26.612,2.466,52.79,0.235,79.091-3.072c13.371-1.682,25.062-1.447,37.912,8.411
			c14.757,11.318,35.462,8.532,53.954,6.654c28.07-2.849,54.484,0.593,76.759,19.342c10.343,8.706,24.892-1.895,35.278,9.69
			c3.209,3.581,12.139,4.188,16.406,10.063c2.613,3.598,6.342,6.575,10.841,5.663c17.553-3.557,30.448,2.05,38.849,18.047
			c1.123,2.138,3.862,5.287,5.429,5.06c33.276-4.842,40.834,33.905,67.726,39.753c5.009,1.089,4.473,6.661,6.313,10.316
			c3.229,6.412,7.705,11.771,15.748,10.944c8.447-0.87,10.01,3.491,10.157,10.628c0.263,12.895,6.7,20.866,17.715,28.656
			c11.099,7.849,21.163,18.116,24.709,34.205c3.134,14.219,15.035,25.841,22.743,38.738c11.03,18.454,20.921,35.92,18.715,58.228
			c-0.261,2.634,3.438,5.504,4.835,8.482c6.151,13.113,11.173,26.649,9.286,41.431c-1.272,9.957-1.541,18.726,9.434,23.731
			c4.415,2.014,4.768,6.513,4.794,10.995c0.158,27.159-2.743,53.999-8.079,80.602c2.863,9.501,8.002,18.777,0.806,28.782
			c-2.514,3.495-1.996,7.761,0.521,11.784c2.721,4.349,4.472,9.214-0.227,13.484c-1.004,0.913-3.351,1.458-4.497,0.922
			c-6.818-3.177-5.315-9.162-4.751-14.927c1.307-13.353,2.082-26.725-0.025-40.083c-0.015-25.549-1.264-50.895-9.361-75.501
			c-2.656-8.075-4.38-16.576-5.471-25.019c-1.988-15.382-7.534-28.977-14.716-42.846c-9.611-18.559-22.637-35.844-26.181-57.343
			c-0.485-2.939-3.442-5.626-5.623-8.106c-19.274-21.924-38.241-44.138-58.168-65.455c-7.292-7.801-13.925-17.305-26.016-19.47
			c-2.982-0.534-6.106-3.399-8.068-6.015c-20.24-26.977-53.527-36.119-77.781-56.983c-20.607-17.727-47.51-14.704-69.277-27.335
			c-6.846-3.974-15.068-5.46-21.694-11.359c-10.142-9.027-25.198-1.833-37.131-9.691c-4.053-2.668-10.391-3.725-13.67-8.609
			c-4.424-6.589-9.238-9.565-17.022-5c-2.88,1.689-6.57,1.278-9.695-0.9c-18.372-12.805-41.18-8.172-61.004-15.387
			c-3.101-1.129-7.711-2.725-9.784-1.343c-17.427,11.603-34.437,2.213-51.158-1.087c-10.49-2.07-20.65-1.698-30.475,0.164
			c-12.61,2.389-24.718,4.88-37.775,2.827c-14.093-2.216-24.432,9.94-38.362,11.921c-9.542,1.357-19.286,5.537-29.479,5.276
			c-4.41-0.113-8.198,0.138-12.132,2.481c-18.396,10.96-38.468,19.004-57.878,27.376C337.1,235.961,305.07,257.645,272.957,279.5
			c-10.526,7.163-22.403,12.432-31.398,22.043c-6.901,7.374-16.065,12.666-18.048,23.879c-1.05,5.938-6.06,7.784-11.473,8.483
			c3.569,2.484,7.137,4.968,10.705,7.452c28.23-21.578,58.027-40.828,88.439-59.132c10.86-6.536,21.817-12.314,35.421-12.293
			c14.503,0.022,25.635-11.232,36.845-17.751c31.103-18.086,64.77-24.639,98.816-31.04c24.113-4.533,46.039-18.585,71.938-15.655
			c6.544,0.741,12.789-0.442,19.766,2.062c19.2,6.891,39.559,7.62,59.745,5.547c13.033-1.338,25.443-1.711,36.632,6.393
			c2.063,1.494,4.357,4.252,6.321,4.066c35.392-3.346,64.156,16.41,95.873,26.087c13.971,4.264,26.953,11.987,42.599,12.996
			c8.17,0.526,20.985,2.262,24.468,14.849c0.388,1.403,1.999,3.359,3.229,3.507c31.604,3.795,52.152,27.37,75.642,44.446
			c13.67,9.938,27.868,20.044,40.542,31.474c13.19,11.895,23.068,27.412,40.753,34.205c3.532,1.357,6.659,5.723,8.417,9.439
			c17.784,37.575,44.555,70.961,53.377,112.679c3.285,15.534,3.198,31.993,14.69,44.792c0.495,0.551,0.688,1.7,0.525,2.466
			c-5.447,25.693,1.7,50.852,3.645,76.168c2.055,26.747-4.162,52.537-6.382,78.772c-7.298,86.241-50.101,155.434-102.172,221.718
			c-31.965,40.69-75.145,61.158-118.083,84.943c-19.446,10.772-41.771,12.05-60.105,25.174c-10.575,7.569-26.435,9.058-38.602,9.534
			c-25.218,0.987-47.036,13.468-71.633,15.337c-26.942,2.049-53.442,6.622-80.807,7.412c-29.695,0.858-58.429-4.332-87.662-4.779
			c-12.081-0.184-22.694-4.966-34.031-8.508c-66.178-20.674-122.81-58.26-178.609-97.438
			c-16.961-11.908-33.915-23.513-49.571-37.999c-15.119-13.99-29.612-28.507-44.113-43.31
			C155.138,832.886,120.69,768.324,99.259,695.11C88.872,659.623,81.812,623.737,82.329,587.795z M138.405,838.708
			c-0.271,1.114-2.025,2.898-2.672,2.731c-5.616-1.452-7.181-6.087-7.981-11.127c-0.123-0.78,0.134-1.621,0.428-4.546
			c3.063,1.039,4.917,1.141,5.939,2.115C137.15,830.764,139.496,834.221,138.405,838.708z M164.114,885.736
			c-10.921-9.831-22.394-19.288-25.342-37.107c19.962,3.915,23.664,19.632,29.858,33.091c20.711,13.387,34.611,33.99,52.923,49.941
			c16.379,14.266,31.113,30.544,51.988,38.908c9.797,3.925,14.394,14.522,22.737,20.003c19.748,12.974,40.3,24.726,60.527,36.972
			c7.203,0.461,13.573,2.254,16.158,10.099c6.113,1.835,13.318,1.662,16.893,9.802c-8.951,4.909-14.932-2.239-21.765-5.075
			c-4.408-2.226-9.804-2.949-12.307-8.078c-23.051-1.519-41.344-14.952-59.807-26.186c-24.397-14.845-48.468-31.152-69.538-50.286
			C202.99,936.527,179.796,914.14,164.114,885.736z"/>
	</g>
	<g>
		<path d="M190.984,359.444c-3.332-0.218-7.899-1.139-9.007,2.447c-4.426,14.327-16.743,25.481-18.499,44.94
			c18.393-11.783,22.138-31.248,35.621-42.271C195.637,364.055,192.589,362.894,190.984,359.444z"/>
	</g>
</g>
</svg>
