<?xml version="1.0" encoding="utf-8"?>
<!-- Designed by Vexels.com - 2020 All Rights Reserved - https://vexels.com/terms-and-conditions/  -->
<svg version="1.1" id="Capa_1" xmlns="http://www.w3.org/2000/svg" xmlns:xlink="http://www.w3.org/1999/xlink" x="0px" y="0px"
	 viewBox="0 0 1200 1200" enable-background="new 0 0 1200 1200" xml:space="preserve">
<g>
	<path d="M708.724,848.635c-28.966-42.323-57.223-85.156-87.129-126.804c-22.764-31.7-28.154-33.882-51.051-5.464
		c-41.776,51.853-90.14,97.422-133.52,147.656c-30.022,34.767-62.451,67.377-95.363,99.67
		c-38.776,38.048-74.135,80.991-108.935,123.512c-17.32,21.162-37.42,38.105-60.386,52.376c-8.965,5.571-17.453,15.475-28.382,7.325
		c-12.446-9.28-1.323-18.881,2.467-28.019c22.328-53.821,64.06-93.922,99.67-138.009c64.473-79.819,129.112-159.791,198.679-235.083
		c32.442-35.11,56.041-77.597,93.444-107.969c17.636-14.321,16.339-28.916,4.803-46.438
		c-40.004-60.761-77.696-123.124-119.636-182.499c-22.248-31.497-32.391-70.215-61.033-97.377c0.649-8.59,4.009-15.75,11.043-20.971
		c16.916-8.719,31.149-1.037,45.237,7.428c15.96,9.031,30.77,19.462,41.442,34.816c37.459,35.086,60.489,81.238,91.513,121.289
		c16.968,21.906,35.847,44.518,47.508,69.266c15.249,32.363,26.531,7.189,39.858,2.432c22.439-11.652,36.03-65.275,71.521-15.088
		c1.924,8.218,1.757,16.611,1.859,24.962c1.396,17.406-8.458,31.056-15.362,45.685c-3.125,11.737-12.174,16.885-22.715,20.372
		l0.125-0.112c-6.094,7.556-5.542,15.193-0.28,22.888l-0.345-0.527c9.082,9.998,16.001,21.351,21.185,33.792l-0.857-1.386
		c5.803,2.685,10.13,6.774,12.28,12.927l-2.144-2.301c9.491,4.436,7.431,15.55,12.904,22.308l-0.354-0.736
		c18.714,15.503,22.807,42.141,43.041,56.486c4.426,39.58,39.741,60.876,56.124,94.103c19.084,38.705,42.533,76.48,73.802,107.85
		c31.497,58.173,24.089,71.08-42.086,73.344c-18.986-9.09-23.709-33.638-44.356-40.946l0.103,0.05
		c-11.603-17.777-22.485-36.03-35.112-53.131c-12.087-19.075-38.563-27.32-40.619-53.944
		C722.885,863.236,718.669,853.65,708.724,848.635z"/>
	<path d="M696.311,516.264c-8.204-11.974-18.113-14.829-30.793-6.454c-8.612,5.688-17.694,10.665-26.565,15.961
		c49.891-69.095,107.757-131.457,164.524-194.746c17.686-2.803,15.816-19.41,21.612-30.605
		c52.848-61.613,95.595-130.697,144.522-195.206c5.28-6.962,11.677-13.077,17.555-19.585c8.473-5.774,15.64-12.886,21.685-21.148
		l0.133-0.233c3.056-3.931,6.637-7.305,10.745-10.119l0.375-0.238c33.205,2.892,42.888,27.722,20.308,63.577
		c-7.016,11.141-16.055,21.059-20.134,34.094c-0.424,33.322-26.747,53.371-42.773,77.682
		c-33.711,51.14-70.922,100.269-110.126,147.371c-19.3,23.189-39.613,45.065-53.602,71.996c-2.299,5.9-6.165,10.444-11.713,13.534
		l1.15-1.701c-15.95,13.071-22.597,34.505-40.896,45.465l-0.862,0.654c-19.032,31.237-30.898,69.701-75.665,74.98
		c3.598-15.07,7.195-30.141,10.793-45.212C703.471,529.547,702.352,522.872,696.311,516.264z"/>
	<path d="M416.207,311.543c-13.345-6.28-27.31-10.129-42.1-10.754c-5.899-0.199-10.637-2.527-13.89-7.576
		c-2.846-4.732-5.049-9.924-9.602-13.437c-41.51-25.067-54.025-72.913-83.7-107.378c-5.865-6.812-10.039-19.767,0.494-28.944
		c8.823-7.687,20.473-9.22,29.917-4.499c25.435,12.717,49.23,28.438,64.615,53.357c12.084,19.573,22.887,39.935,34.259,59.947
		c1.231,21.058,11.099,34.11,33.243,35.811C433.032,300.399,426.523,307.046,416.207,311.543z"/>
	<path d="M849.976,1010.408c2.451-2.479,4.618-6.718,7.398-7.169c34.134-5.529,41.393-26.109,32.365-56.243
		c25.288,32.008,50.576,64.015,75.865,96.022c3.398,3.395,4.524,7.425,3.382,12.088c-7.44,11.16-19.164,9.261-30.03,9.981
		c-4.151,0.763-8.331,1.471-12.452,2.414c-10.164,2.672-19.442,9.909-30.877,6.282c-6.178-2.268-12.229-4.839-18.18-7.648
		c-6.858-7.197-13.716-14.394-20.575-21.59c-3.644-5.267-8.262-9.721-12.262-14.684c-2.339-3.634-3.438-7.615-3.29-11.934
		C842.619,1013.6,845.427,1011.004,849.976,1010.408z"/>
	<path d="M685.791,581.543c25.222-24.993,50.444-49.986,75.665-74.98c-4.099,30.849-2.3,65.179-43.71,74l0.026-0.028
		c-12.154,11.886-21.138,30.287-43.516,21.167C678.101,594.983,681.946,588.263,685.791,581.543z"/>
	<path d="M1020.277,151.562c5.768-27.458,12.02-54.828,17.089-82.414c2.345-12.759-10.498-11.231-17.263-15.258
		c34.683-9.163,45.574-2.76,40.492,25.809C1055.577,107.904,1044.946,133.919,1020.277,151.562z"/>
	<path d="M759.812,745.043c-17.923,2.023-41.238,12.771-30.506-24.142c2.798-9.626-15.528-18.394-12.535-32.344
		C739.659,700.88,752.017,721.224,759.812,745.043z"/>
	<path d="M931.063,1041.943c10.943,4.203,21.886,8.405,32.829,12.608c3.837-5.245,8.328-5.88,13.472-1.91l-0.177-0.08
		c2.247,5.16,5.634,9.309,10.661,12.001c-0.909,3.413-1.818,6.825-2.727,10.237c-7.844,9.669-22.763,5.219-30.427,15.241
		c-6.881,1.93-13.805,1.894-20.752,0.427c-13.17-6.546-11.595-18.399-10.779-29.971c0.584-4.543,1.915-8.867,3.99-12.958
		C928.456,1045.677,929.76,1043.81,931.063,1041.943z"/>
	<path d="M825.089,300.42c2.538,11.064,12.2,22.358,0.389,33.179c-7.685,7.04-15.423,4.818-22.002-2.574
		C806.696,318.011,813.285,307.375,825.089,300.42z"/>
	<path d="M803.297,979.393c27.819-8.108,31.764,19.661,46.655,31.016c0.024-0.001-4.117,1.6-4.117,1.6
		c-1.658,4.458-4.005,8.527-6.948,12.255c-4.8,2.112-8.79,0.959-12.083-3C818.968,1007.307,811.132,993.35,803.297,979.393z"/>
	<path d="M708.724,848.635c8.488-5.056,8.305-23.667,21.996-18.297c13.876,5.443,6.274,17.375,2.225,26.999
		c-2.055,4.885-3.536,10.013-5.276,15.03C721.354,864.457,715.039,856.547,708.724,848.635z"/>
	<path d="M762.318,505.909c17.175-11.968,10.613-45.279,40.896-45.464c-6.954,14.924-13.907,29.849-20.861,44.774
		C775.674,505.449,768.996,505.679,762.318,505.909z"/>
	<path d="M768.288,926.312c20.585,11.844,33.867,28.512,35.112,53.131C778.346,970.551,772.613,948.896,768.288,926.312z"/>
	<path d="M416.207,311.543c4.423-7.826,8.845-15.652,13.268-23.478c15.928,10.989,27.476,24.973,30.599,44.719
		C445.451,325.703,430.829,318.623,416.207,311.543z"/>
	<path d="M936.099,1085.418c4.954-0.164,9.908-0.327,14.863-0.491c5.61-4.057,10.678-3.464,15.202,1.776
		c-21.778,15.562-43.292,16.462-64.474-1.156c1.888-1.83,3.776-3.661,5.664-5.494
		C918.244,1074.835,927.684,1077.382,936.099,1085.418z"/>
	<path d="M826.805,1021.263c3.727,0.208,7.455,0.414,11.182,0.621c1.976,0.055,3.952,0.108,5.929,0.163
		c7.449,5.697,11.035,13.619,12.956,22.498C842.865,1041.927,832.078,1035.153,826.805,1021.263z"/>
	<path d="M429.409,288.072c-23.619-0.293-33.426-13.393-33.207-35.803C403.887,267.33,416.829,277.534,429.409,288.072z"/>
	<path d="M694.941,657.744c-13.698-7.105-20.163-18.742-21.184-33.791C686.501,631.655,693.546,642.929,694.941,657.744z"/>
	<path d="M362.444,290.182c3.883,3.536,7.765,7.07,11.655,10.607c-3.911,3.574-7.829,7.149-11.748,10.724
		c-3.067-3.843-6.134-7.686-9.202-11.529c2.127-2.594,3.614-5.513,4.461-8.758L362.444,290.182z"/>
	<path d="M1008.851,64.48c-1.779,12.634-10.033,18.632-21.685,21.148C991.069,75.172,1000.319,70.194,1008.851,64.48z"/>
	<path d="M966.164,1086.702c-5.05-0.591-10.1-1.182-15.176-1.774c10.44-6.481,21.055-12.458,34.134-10.128
		C981.338,1082.804,973.444,1084.265,966.164,1086.702z"/>
	<path d="M877.445,1066.136c7.938,0.498,15.876,0.996,23.814,1.494c4.919,5.182,6.044,10.705,1.508,16.738l-1.079,1.179
		C891.342,1081.905,881.652,1077.443,877.445,1066.136z"/>
	<path d="M674.101,624.479c-9.443-7.746-13.73-15.428,0.28-22.888C674.288,609.22,674.194,616.849,674.101,624.479z"/>
	<path d="M717.124,689.293c-7.262-5.709-10.926-13.5-12.898-22.291C708.522,674.421,712.823,681.857,717.124,689.293z"/>
	<path d="M1019.728,54.129c-3.582,3.373-7.163,6.746-10.745,10.119C1009.65,57.781,1013.514,54.708,1019.728,54.129z"/>
	<path d="M350.614,279.775c3.943,3.468,7.886,6.936,11.829,10.405c0.001,0.001,0.453-0.464,0.453-0.464
		c-3.811,4.427-7.658,4.458-11.54,0.095C349.967,286.55,349.72,283.205,350.614,279.775z"/>
	<path d="M351.356,289.811c3.845-0.031,7.689-0.062,11.537-0.094c-3.246,3.422-6.495,6.844-9.743,10.266
		c-0.854-2.18-1.917-4.309-2.473-6.563C350.41,292.338,351.1,291.021,351.356,289.811z"/>
	<path d="M802.063,462.145c3.904-4.511,7.809-9.022,11.713-13.533C809.872,453.122,805.968,457.634,802.063,462.145z"/>
	<path d="M717.746,580.564l0.026-0.028L717.746,580.564z"/>
	<path d="M706.365,669.285c-6.632-1.888-10.729-6.184-12.275-12.918C698.178,660.667,702.271,664.976,706.365,669.285z"/>
	<path d="M977.365,1052.641c-4.478,0.634-8.956,1.267-13.454,1.905c0.551-3.839,1.122-7.684,1.692-11.528
		C969.523,1046.226,973.444,1049.434,977.365,1052.641z"/>
	<path d="M987.848,1064.562c-3.553-4-7.107-7.999-10.661-12C984.341,1053.366,987.983,1057.287,987.848,1064.562z"/>
	<path d="M696.311,516.264c6.462,6.613,5.835,13.32,0.27,20.081C696.492,529.642,696.402,522.953,696.311,516.264z"/>
	<polygon points="978.452,161.067 975.58,158.334 979.069,157.341 	"/>
	<polygon points="879.611,306.53 875.996,307.592 876.625,304.316 	"/>
	<polygon points="769.664,434.907 772.736,433.807 772.268,436.784 	"/>
	<path d="M902.768,1084.368c-0.506-5.599-1.011-11.199-1.512-16.768c3.475-13.794,13.056-22.463,24.781-29.323
		c0,0,1.321,4.079,1.322,4.069c0.001-0.01,0.368,4.243,0.371,4.227c0.002-0.017,0.805,4.143,0.81,4.121
		c0.006-0.021,4.177,0.458,4.177,0.458c8.929,10.666,6.778,22.41,3.358,34.273C924.988,1085.068,913.878,1084.718,902.768,1084.368z
		"/>
	<path d="M843.915,1022.047l-2.982-0.386c0,0-2.998,0.223-2.973,0.223c2.642-3.292,5.259-6.585,7.875-9.877
		C846.293,1015.565,845.653,1018.911,843.915,1022.047z"/>
	<path d="M924.594,1038.998c2.922-0.188,5.45,0.72,7.583,2.726c0.271,3.143,0.452,6.291,0.54,9.435
		c-0.001-0.009-0.201,4.443-0.201,4.443c-4.819,4.116-7.939,3.086-9.363-3.088C923.633,1048.009,924.114,1043.504,924.594,1038.998z
		"/>
	<path d="M923.154,1052.515c3.253,0.628,6.375,1.657,9.363,3.087C927.693,1059.733,922.513,1064.944,923.154,1052.515z"/>
</g>
</svg>
